:SAMPLES-PER-SECOND 30
:FULLY-SPECIFIED
:DEGREES
810
root  28.4719 38.0233 5.37196 173.852 -2.95773 -179.977
RightUpLeg  -11.8023 -6.85267 -10.4189
RightLeg  15.6776 9.42721 2.39086
RightFoot  1.83718 -1.0722 9.35494
RightToes  5.47152e-009 0 -3.6325e-017
Spine  6.49223 -0.872083 9.43629
Spine1  10.7705 1.20222 -5.95342
HEad  -3.96333 13.2149 -10.231
LeftShoulder1  -0.362708 4.42745 -33.1557
LeftArm  -1.34717 6.26999 -37.8899
LeftForeArm  16.7968 -16.1403 -5.84584
LeftHand  -0.0549097 3.76894 2.58685
RightShoulder  -0.700595 -5.52393 28.0024
RightArm  12.1621 -2.80771 45.1084
RightForeArm  6.04716 11.7346 6.02711
RightHand  -0.371925 2.63186 -5.59143
LeftUpLeg  10.1787 -11.7792 -0.444104
LeftLeg  26.805 -5.03253 -2.44876
LeftFoot  -20.0784 0.331185 2.69903
LeftToes  -4.29285e-010 1.49941e-010 2.15559e-012
811
root  29.1199 38.087 4.54527 174.27 -6.47562 -178.802
RightUpLeg  -11.1187 -8.36536 -8.78432
RightLeg  17.7851 7.29371 2.12568
RightFoot  -0.251982 -0.734793 7.54584
RightToes  5.47152e-009 0 -3.6325e-017
Spine  6.12676 -1.24359 10.5422
Spine1  11.0538 0.666004 -3.94819
HEad  -2.96014 11.6593 -9.66387
LeftShoulder1  -0.364483 4.44665 -32.5046
LeftArm  -3.75783 7.28273 -38.6601
LeftForeArm  19.9139 -13.7252 -6.39982
LeftHand  -0.0344734 4.56323 1.70354
RightShoulder  -0.747295 -5.63683 28.3868
RightArm  12.8669 -2.85645 44.4786
RightForeArm  5.6161 11.6023 6.23547
RightHand  -0.351012 2.52546 -5.3638
LeftUpLeg  5.9768 -12.0659 2.78093
LeftLeg  34.2729 -5.89955 -3.95945
LeftFoot  -16.1997 0.0372115 -1.98544
LeftToes  -4.29285e-010 1.49941e-010 2.15559e-012
812
root  29.7091 38.1897 3.77508 174.617 -9.70139 -178.06
RightUpLeg  -10.0285 -10.5323 -7.66084
RightLeg  18.6635 5.96393 1.97514
RightFoot  -1.99868 -0.539233 6.44299
RightToes  5.47152e-009 0 -3.6325e-017
Spine  6.6585 -1.37046 11.8087
Spine1  10.1006 0.630854 -3.10521
HEad  -2.1339 10.0745 -8.15732
LeftShoulder1  -0.300198 4.28787 -32.1656
LeftArm  -3.89689 8.63371 -39.0723
LeftForeArm  21.3642 -12.6409 -6.79254
LeftHand  -0.0331384 4.91713 2.02328
RightShoulder  -0.701908 -5.53475 27.894
RightArm  13.7481 -3.77741 44.5788
RightForeArm  5.02532 11.8257 6.41539
RightHand  -0.426171 2.20583 -6.70859
LeftUpLeg  0.494517 -10.6924 5.50655
LeftLeg  42.2912 -4.87717 -4.30892
LeftFoot  -8.48736 0.121157 -4.53801
LeftToes  -4.29285e-010 1.49941e-010 2.15559e-012
813
root  30.2414 38.3476 2.99405 174.581 -12.6362 -177.665
RightUpLeg  -8.02484 -12.4591 -7.13752
RightLeg  18.4038 4.81419 2.06165
RightFoot  -3.35247 -0.437395 5.92153
RightToes  5.47152e-009 0 -3.6325e-017
Spine  7.33427 -1.43109 12.913
Spine1  9.54404 0.794173 -3.21692
HEad  -2.28132 8.07612 -7.43113
LeftShoulder1  -0.325753 4.35484 -32.1468
LeftArm  -1.70131 9.81508 -39.1141
LeftForeArm  21.4619 -12.9899 -7.17169
LeftHand  -0.0325027 4.79018 1.7603
RightShoulder  -0.683184 -5.48461 27.8089
RightArm  15.2084 -3.81863 44.2148
RightForeArm  5.27683 12.0123 6.6694
RightHand  -0.38983 2.72267 -5.78787
LeftUpLeg  -4.49462 -9.1198 6.73828
LeftLeg  49.0933 -1.91218 -1.89616
LeftFoot  -0.585986 0.183978 -1.82769
LeftToes  -4.29285e-010 1.49941e-010 2.15559e-012
814
root  30.7051 38.4885 2.23587 174.523 -15.0473 -177.762
RightUpLeg  -6.18636 -13.4911 -7.10841
RightLeg  18.2868 3.41262 2.12357
RightFoot  -4.56015 -0.335034 5.13642
RightToes  5.47152e-009 0 -3.6325e-017
Spine  7.71064 -1.15792 13.6381
Spine1  9.69141 1.29529 -3.43163
HEad  -2.65055 6.24522 -6.6629
LeftShoulder1  -0.329089 4.35863 -32.3531
LeftArm  1.15413 10.9869 -39.2456
LeftForeArm  21.0007 -14.4311 -7.05251
LeftHand  -0.0502468 4.22374 1.4614
RightShoulder  -0.635816 -5.36225 27.5005
RightArm  17.1816 -3.56124 43.8002
RightForeArm  4.8668 12.6309 6.90777
RightHand  -0.374574 2.72945 -5.55778
LeftUpLeg  -8.38077 -6.60677 6.86214
LeftLeg  53.6053 0.882826 1.71596
LeftFoot  0.671282 -0.0208824 0.204035
LeftToes  -4.29285e-010 1.49941e-010 2.15559e-012
815
root  31.118 38.6761 1.46697 174.848 -17.098 -178.355
RightUpLeg  -4.38361 -13.8402 -7.3969
RightLeg  17.4545 1.7384 1.98713
RightFoot  -5.43484 -0.281612 4.73417
RightToes  5.47152e-009 0 -3.6325e-017
Spine  7.97692 -0.888901 13.7873
Spine1  9.39226 1.73566 -4.17275
HEad  -2.94059 4.93658 -6.13124
LeftShoulder1  -0.386298 4.50155 -32.5852
LeftArm  4.01958 13.0882 -39.2594
LeftForeArm  17.7604 -16.6199 -6.37674
LeftHand  -0.111156 2.79498 4.52226
RightShoulder  -0.609995 -5.2905 27.4047
RightArm  19.5862 -2.55368 43.4394
RightForeArm  4.55563 12.6563 7.42353
RightHand  -0.442412 2.79431 -6.48549
LeftUpLeg  -11.7945 -3.12867 6.10861
LeftLeg  55.4303 1.20342 2.36638
LeftFoot  -0.402885 -0.0707505 0.758334
LeftToes  -4.29285e-010 1.49941e-010 2.15559e-012
